<svg width="1392.62" height="1165.889" viewBox="0 0 368.464 308.475" xml:space="preserve" xmlns="http://www.w3.org/2000/svg"><defs><path id="a" d="M-9.478-188.215h448.195v163.842H-9.478z"/><path id="b" d="M-9.478-188.215h448.195v163.842H-9.478z"/></defs><path style="fill:#000;stroke:#000;stroke-width:3.43413;stroke-linecap:butt;stroke-linejoin:round;stroke-miterlimit:4;stroke-opacity:1;paint-order:normal" d="M99.109 179.995v-19.47h55.164v-22.714H99.109v-19.47L55.727 149.17z" transform="translate(-45.495 66.555)"/><path style="fill:none;stroke:#000;stroke-width:4.56495;stroke-linecap:square;stroke-linejoin:round;stroke-opacity:1" d="M47.938 92.106h114.124V206.23H47.938z" transform="translate(-45.495 66.555)"/><path style="fill:none;stroke:#000;stroke-width:4.56495;stroke-linecap:square;stroke-linejoin:round;stroke-opacity:1" transform="rotate(180 -22.747 33.277)" d="M-286.869-206.23h114.124v114.124h-114.124z"/><path style="fill:#000;stroke:#000;stroke-width:3.43413;stroke-linecap:butt;stroke-linejoin:round;stroke-miterlimit:4;stroke-opacity:1;paint-order:normal" d="m360.506 118.341-.001 19.47h-55.163v22.714h55.164v19.47l43.382-30.828z" transform="translate(-45.495 66.555)"/><path style="fill:none;stroke:#000;stroke-width:4.56495;stroke-linecap:square;stroke-linejoin:round;stroke-opacity:1" transform="rotate(180 -22.747 33.277)" d="M-411.676-206.23h114.124v114.124h-114.124z"/><path style="fill:none;stroke:#000;stroke-width:4.56495;stroke-linecap:square;stroke-linejoin:round;stroke-opacity:1" d="M47.777-32.7h114.124V81.424H47.777z" transform="translate(-45.495 66.555)"/><path style="fill:none;stroke:#000;stroke-width:4.56495;stroke-linecap:square;stroke-linejoin:round;stroke-opacity:1" transform="rotate(180 -22.747 33.277)" d="M-286.709-81.424h114.124V32.7h-114.124zM-411.516-81.424h114.124V32.7h-114.124z"/><path style="fill:none;stroke:#000;stroke-width:11.9156;stroke-linecap:round;stroke-linejoin:round;stroke-dasharray:none;stroke-opacity:1" d="M384.692 51.256a39.719 39.719 0 0 1-46.523 8.867 39.719 39.719 0 0 1-21.938-41.973 39.719 39.719 0 0 1 33.84-33.135A39.719 39.719 0 0 1 391.573 7.83m-.118.044-17.492-3.32M393.167-9.88l-1.482 17.743M74.601 51.256a39.719 39.719 0 0 0 46.523 8.867 39.719 39.719 0 0 0 21.938-41.973 39.719 39.719 0 0 0-33.84-33.135A39.719 39.719 0 0 0 67.72 7.83m.118.044 17.493-3.32M66.126-9.88 67.61 7.863" transform="translate(-45.495 66.555)"/><path style="fill:#000;fill-opacity:1;stroke:#000;stroke-width:3.13267;stroke-linecap:butt;stroke-linejoin:round;stroke-opacity:1;paint-order:normal" d="M216.008 18.988h10.519L214.459 69.31h30.375l-12.069-50.321h10.52l-13.638-39.574z" transform="translate(-45.495 66.555)"/><path style="fill:#000;fill-opacity:1;stroke:#000;stroke-width:3.23085;stroke-linecap:butt;stroke-linejoin:round;stroke-opacity:1;paint-order:normal" d="M273.744 154.71H247.96l-12.447-51.898h-11.412l-12.447 51.899h-25.783l43.936 40.814z" transform="translate(-45.495 66.555)"/><text xml:space="preserve" transform="matrix(.39402 0 0 .39402 9.921 70.624)" style="font-size:66.6667px;white-space:pre;shape-inside:url(#a);fill:#000;stroke:#000;stroke-width:5;stroke-linecap:square;stroke-linejoin:round"><tspan x="-9.479" y="-127.393">Counter</tspan></text><text xml:space="preserve" transform="matrix(.39402 0 0 .39402 10.082 357.287)" style="font-size:66.6667px;white-space:pre;shape-inside:url(#b);fill:#000;stroke:#000;stroke-width:5;stroke-linecap:square;stroke-linejoin:round"><tspan x="-9.479" y="-127.393">Counter</tspan></text></svg>