<svg fill="none" width="340.91" height="341.67" xml:space="preserve" xmlns="http://www.w3.org/2000/svg"><path stroke="#000" stroke-width="2" style="stroke-width:3;stroke-dasharray:none" d="M2 2h336.91v337.67H2z"/><path style="fill:none;stroke:#000;stroke-width:3;stroke-linecap:square;stroke-linejoin:miter;stroke-dasharray:none" transform="rotate(45)" d="M221.512-195.978h26.466v26.466h-26.466z"/><g style="stroke-width:2;stroke-dasharray:none"><path style="fill:none;stroke:#000;stroke-width:2;stroke-linecap:square;stroke-linejoin:miter;stroke-dasharray:none" d="M234.814 110.278h80v80h-80z"/><path style="fill:none;stroke:#000;stroke-width:2;stroke-linecap:square;stroke-linejoin:miter;stroke-dasharray:none" d="M247.314 122.778h55v55h-55z"/><path style="fill:none;stroke:#000;stroke-width:2;stroke-linecap:square;stroke-linejoin:miter;stroke-dasharray:none" d="M259.814 135.278h30v30h-30zM235.501 110.965l23.862 23.862M313.613 111.274l-23.861 23.861M259.461 165.426 235.6 189.287M290.381 165.845l23.862 23.862"/></g><g transform="translate(6.377 -3.78)" style="stroke-width:3;stroke-dasharray:none"><rect style="fill:none;stroke:#000;stroke-width:3;stroke-linecap:square;stroke-linejoin:round;stroke-dasharray:none" width="90.181" height="90.181" x="40.474" y="219.294" ry="0" rx="0"/><rect style="fill:none;stroke:#000;stroke-width:3;stroke-linecap:square;stroke-linejoin:round;stroke-dasharray:none" width="40.775" height="40.775" x="246.978" y="219.293" ry="0" rx="0"/><rect style="fill:none;stroke:#000;stroke-width:3;stroke-linecap:square;stroke-linejoin:round;stroke-dasharray:none" width="40.775" height="40.775" x="147.635" y="219.293" ry="0" rx="0"/><rect style="fill:none;stroke:#000;stroke-width:3;stroke-linecap:square;stroke-linejoin:round;stroke-dasharray:none" width="40.775" height="40.775" x="197.306" y="219.293" ry="0" rx="0"/><rect style="fill:none;stroke:#000;stroke-width:3;stroke-linecap:square;stroke-linejoin:round;stroke-dasharray:none" width="40.775" height="40.775" x="246.978" y="268.964" ry="0" rx="0"/><rect style="fill:none;stroke:#000;stroke-width:3;stroke-linecap:square;stroke-linejoin:round;stroke-dasharray:none" width="40.775" height="40.775" x="197.306" y="268.964" ry="0" rx="0"/><rect style="fill:none;stroke:#000;stroke-width:3;stroke-linecap:square;stroke-linejoin:round;stroke-dasharray:none" width="40.775" height="40.775" x="147.635" y="268.964" ry="0" rx="0"/></g><g style="stroke-width:2.66185138;stroke-dasharray:none"><path style="fill:none;stroke:#000;stroke-width:2.66185138;stroke-linecap:round;stroke-linejoin:round;stroke-dasharray:none" d="m465.12 122.996 1.679 94.032 96.13 1.679v-95.71z" transform="matrix(.75136 0 0 .75136 -274.192 -11.751)"/><path style="fill:none;stroke:#000;stroke-width:2.66185138;stroke-linecap:round;stroke-linejoin:round;stroke-dasharray:none" d="m479.172 105.217 2.319 87.883 91.513 2.939-2.52-90.254z" transform="matrix(.75136 0 0 .75136 -274.192 -11.751)"/><path style="fill:none;stroke:#000;stroke-width:2.66185138;stroke-linecap:round;stroke-linejoin:round;stroke-dasharray:none" d="m439.932 51.633 3.359 173.79 175.469 3.359.84-172.531z" transform="matrix(.75136 0 0 .75136 -274.192 -11.751)"/><path style="fill:none;stroke:#000;stroke-width:2.66185138;stroke-linecap:round;stroke-linejoin:round;stroke-dasharray:none" d="m410.128 81.438 4.198 192.68 194.779 4.198-1.26-194.78zM439.313 51.756l-29.21 29.483M619.18 56.25l-11.16 27.41M443.29 225.004l-28.964 48.694M618.785 228.633l-9.235 49.709M481.071 192.68l-13.853 23.928M573.004 196.039l-10.024 22.274M570.065 106.205l-7.976 17.211M478.552 104.946l-13.433 18.47M481.49 192.68l-37.928 31.853M573.597 196.013l44.743 32.349M467.218 216.608l-52.053 57.51M563.077 218.88l45.188 58.177M607.426 83.931l-44.497 39.485M464.7 122.682l-53.733-39.985M441.217 52.744l37.335 51.782M618.76 56.67l-48.695 49.115" transform="matrix(.75136 0 0 .75136 -274.192 -11.751)"/></g></svg>