<?xml version="1.0" encoding="UTF-8" standalone="no"?>
<svg
   width="1392.6243"
   height="1109.124"
   viewBox="0 0 368.46513 293.45543"
   xml:space="preserve"
   version="1.1"
   id="svg22"
   sodipodi:docname="Arrows Minified - Copy.svg"
   inkscape:version="1.2.2 (732a01da63, 2022-12-09)"
   xmlns:inkscape="http://www.inkscape.org/namespaces/inkscape"
   xmlns:sodipodi="http://sodipodi.sourceforge.net/DTD/sodipodi-0.dtd"
   xmlns="http://www.w3.org/2000/svg"
   xmlns:svg="http://www.w3.org/2000/svg"><defs
     id="defs26"><rect
       x="21.867586"
       y="-329.16473"
       width="990.94696"
       height="283.12769"
       id="rect313" /><rect
       x="21.867586"
       y="-329.16473"
       width="990.94696"
       height="283.12769"
       id="rect313-8" /><rect
       x="21.867586"
       y="-329.16473"
       width="990.94696"
       height="283.12769"
       id="rect313-4" /><rect
       x="21.867586"
       y="-329.16473"
       width="990.94696"
       height="283.12769"
       id="rect313-47" /></defs><sodipodi:namedview
     id="namedview24"
     pagecolor="#ffffff"
     bordercolor="#000000"
     borderopacity="0.25"
     inkscape:showpageshadow="2"
     inkscape:pageopacity="0.0"
     inkscape:pagecheckerboard="0"
     inkscape:deskcolor="#d1d1d1"
     showgrid="false"
     inkscape:zoom="0.61438096"
     inkscape:cx="887.88559"
     inkscape:cy="576.18973"
     inkscape:window-width="1920"
     inkscape:window-height="1009"
     inkscape:window-x="-8"
     inkscape:window-y="-8"
     inkscape:window-maximized="1"
     inkscape:current-layer="svg22" /><path
     style="fill:#000000;stroke:#000000;stroke-width:3.43413;stroke-linecap:butt;stroke-linejoin:round;stroke-miterlimit:4;stroke-opacity:1;paint-order:normal"
     d="m 53.614475,239.70559 v -19.47 h 55.163995 v -22.714 H 53.614475 v -19.47 l -43.382,30.829 z"
     id="path2" /><path
     style="fill:none;stroke:#000000;stroke-width:4.56495;stroke-linecap:square;stroke-linejoin:round;stroke-opacity:1"
     d="M 2.443475,151.81659 H 116.56747 v 114.124 H 2.443475 Z"
     id="path4" /><path
     style="fill:none;stroke:#000000;stroke-width:4.56495;stroke-linecap:square;stroke-linejoin:round;stroke-opacity:1"
     d="m 241.37547,265.93959 h -114.124 v -114.124 h 114.124 z"
     id="path6" /><path
     style="fill:#000000;stroke:#000000;stroke-width:3.43413;stroke-linecap:butt;stroke-linejoin:round;stroke-miterlimit:4;stroke-opacity:1;paint-order:normal"
     d="m 315.01147,178.05159 -10e-4,19.47 h -55.163 v 22.714 h 55.164 v 19.47 l 43.382,-30.828 z"
     id="path8" /><path
     style="fill:none;stroke:#000000;stroke-width:4.56495;stroke-linecap:square;stroke-linejoin:round;stroke-opacity:1"
     d="m 366.18247,265.93959 h -114.124 v -114.124 h 114.124 z"
     id="path10" /><path
     style="fill:none;stroke:#000000;stroke-width:4.56495;stroke-linecap:square;stroke-linejoin:round;stroke-opacity:1"
     d="M 2.282475,27.010585 H 116.40647 V 141.13459 H 2.282475 Z"
     id="path12" /><path
     style="fill:none;stroke:#000000;stroke-width:4.56495;stroke-linecap:square;stroke-linejoin:round;stroke-opacity:1"
     d="m 241.21547,141.13359 h -114.124 V 27.009585 h 114.124 z m 124.807,0 h -114.124 V 27.009585 h 114.124 z"
     id="path14" /><path
     style="fill:none;stroke:#000000;stroke-width:11.9156;stroke-linecap:round;stroke-linejoin:round;stroke-dasharray:none;stroke-opacity:1"
     d="m 339.19747,110.96659 a 39.719,39.719 0 0 1 -46.523,8.867 39.719,39.719 0 0 1 -21.938,-41.973005 39.719,39.719 0 0 1 33.84,-33.135 39.719,39.719 0 0 1 41.502,22.815 m -0.118,0.044 -17.492,-3.32 m 19.204,-14.434 -1.482,17.743 M 29.106475,110.96659 a 39.719,39.719 0 0 0 46.523,8.867 39.719,39.719 0 0 0 21.938,-41.973005 39.719,39.719 0 0 0 -33.84,-33.135 39.719,39.719 0 0 0 -41.502,22.815 m 0.118,0.044 17.493,-3.32 m -19.205,-14.434 1.484,17.743"
     id="path16" /><path
     style="fill:#000000;fill-opacity:1;stroke:#000000;stroke-width:3.13267;stroke-linecap:butt;stroke-linejoin:round;stroke-opacity:1;paint-order:normal"
     d="m 170.51347,78.698585 h 10.519 l -12.068,50.322005 h 30.375 l -12.069,-50.321005 h 10.52 l -13.638,-39.574 z"
     id="path18" /><path
     style="fill:#000000;fill-opacity:1;stroke:#000000;stroke-width:3.23085;stroke-linecap:butt;stroke-linejoin:round;stroke-opacity:1;paint-order:normal"
     d="m 228.24947,214.42059 h -25.784 l -12.447,-51.898 h -11.412 l -12.447,51.899 h -25.783 l 43.936,40.814 z"
     id="path20" /></svg>
