<?xml version="1.0" encoding="UTF-8" standalone="no"?>
<!-- Created with Inkscape (http://www.inkscape.org/) -->

<svg
   width="368.46408mm"
   height="308.47491mm"
   viewBox="0 0 368.46408 308.47491"
   version="1.1"
   id="svg5"
   xml:space="preserve"
   inkscape:version="1.2.2 (732a01da63, 2022-12-09)"
   sodipodi:docname="Arrows Old.svg"
   xmlns:inkscape="http://www.inkscape.org/namespaces/inkscape"
   xmlns:sodipodi="http://sodipodi.sourceforge.net/DTD/sodipodi-0.dtd"
   xmlns="http://www.w3.org/2000/svg"
   xmlns:svg="http://www.w3.org/2000/svg"><sodipodi:namedview
     id="namedview7"
     pagecolor="#ffffff"
     bordercolor="#000000"
     borderopacity="0.25"
     inkscape:showpageshadow="2"
     inkscape:pageopacity="0.0"
     inkscape:pagecheckerboard="false"
     inkscape:deskcolor="#d1d1d1"
     inkscape:document-units="mm"
     showgrid="false"
     inkscape:zoom="0.52221046"
     inkscape:cx="636.71646"
     inkscape:cy="557.24659"
     inkscape:window-width="1920"
     inkscape:window-height="1009"
     inkscape:window-x="-8"
     inkscape:window-y="-8"
     inkscape:window-maximized="1"
     inkscape:current-layer="layer1" /><defs
     id="defs2"><rect
       x="-9.4784536"
       y="-188.215"
       width="448.19543"
       height="163.84183"
       id="rect357" /><rect
       x="-9.4784536"
       y="-188.215"
       width="448.19543"
       height="163.84183"
       id="rect357-1" /></defs><g
     inkscape:label="Layer 1"
     inkscape:groupmode="layer"
     id="layer1"
     transform="translate(-45.494888,66.554699)"><path
       style="fill:#000000;stroke:#000000;stroke-width:3.43413;stroke-linecap:butt;stroke-linejoin:round;stroke-miterlimit:4;stroke-opacity:1;paint-order:normal"
       d="m 99.108936,179.99539 0.001,-19.47 h 55.163004 v -22.714 H 99.108936 v -19.47 l -43.382,30.828 z"
       id="path257" /><rect
       style="fill:none;stroke:#000000;stroke-width:4.56495;stroke-linecap:square;stroke-linejoin:round;stroke-opacity:1"
       id="rect1168"
       width="114.12383"
       height="114.12383"
       x="47.938084"
       y="92.106476" /><rect
       style="fill:none;stroke:#000000;stroke-width:4.56495;stroke-linecap:square;stroke-linejoin:round;stroke-opacity:1"
       id="rect1168-5"
       width="114.12383"
       height="114.12383"
       x="-286.8692"
       y="-206.23032"
       transform="scale(-1)" /><path
       style="fill:#000000;stroke:#000000;stroke-width:3.43413;stroke-linecap:butt;stroke-linejoin:round;stroke-miterlimit:4;stroke-opacity:1;paint-order:normal"
       d="m 360.50562,118.34139 -0.001,19.47001 h -55.163 v 22.714 h 55.164 v 19.47 l 43.38201,-30.828 z"
       id="path257-2-6" /><rect
       style="fill:none;stroke:#000000;stroke-width:4.56495;stroke-linecap:square;stroke-linejoin:round;stroke-opacity:1"
       id="rect1168-5-6"
       width="114.12383"
       height="114.12383"
       x="-411.67648"
       y="-206.23032"
       transform="scale(-1)" /><rect
       style="fill:none;stroke:#000000;stroke-width:4.56495;stroke-linecap:square;stroke-linejoin:round;stroke-opacity:1"
       id="rect1168-3"
       width="114.12383"
       height="114.12383"
       x="47.777363"
       y="-32.700035" /><rect
       style="fill:none;stroke:#000000;stroke-width:4.56495;stroke-linecap:square;stroke-linejoin:round;stroke-opacity:1"
       id="rect1168-5-7"
       width="114.12383"
       height="114.12383"
       x="-286.7085"
       y="-81.423798"
       transform="scale(-1)" /><rect
       style="fill:none;stroke:#000000;stroke-width:4.56495;stroke-linecap:square;stroke-linejoin:round;stroke-opacity:1"
       id="rect1168-5-6-0"
       width="114.12383"
       height="114.12383"
       x="-411.51578"
       y="-81.423798"
       transform="scale(-1)" /><path
       style="fill:none;stroke:#000000;stroke-width:11.9156;stroke-linecap:round;stroke-linejoin:round;stroke-dasharray:none;stroke-opacity:1"
       d="M 384.69185,51.255705 A 39.71858,39.71858 0 0 1 338.16896,60.123029 39.71858,39.71858 0 0 1 316.231,18.14972 39.71858,39.71858 0 0 1 350.07051,-14.984928 39.71858,39.71858 0 0 1 391.57338,7.8301898 m -0.11863,0.04341 -17.49214,-3.3205286 m 19.20405,-14.4325859 -1.48209,17.7427115"
       id="path1340" /><path
       style="fill:none;stroke:#000000;stroke-width:11.9156;stroke-linecap:round;stroke-linejoin:round;stroke-dasharray:none;stroke-opacity:1"
       d="M 74.601289,51.255705 A 39.71858,39.71858 0 0 0 121.12418,60.123029 39.71858,39.71858 0 0 0 143.06214,18.14972 39.71858,39.71858 0 0 0 109.22263,-14.984928 39.71858,39.71858 0 0 0 67.719758,7.8301905 m 0.11863,0.04341 17.492141,-3.3205293 m -19.204051,-14.432586 1.48209,17.7427123"
       id="path1340-8" /><path
       style="fill:#000000;fill-opacity:1;stroke:#000000;stroke-width:3.13267;stroke-linecap:butt;stroke-linejoin:round;stroke-opacity:1;paint-order:normal"
       d="m 216.00803,18.987855 10.51877,9.12e-4 -12.06772,50.3206 h 30.37499 L 232.76544,18.987855 h 10.51969 l -13.63855,-39.573784 z"
       id="path2097" /><path
       style="fill:#000000;fill-opacity:1;stroke:#000000;stroke-width:3.23085;stroke-linecap:butt;stroke-linejoin:round;stroke-opacity:1;paint-order:normal"
       d="m 273.74379,154.7107 -25.78369,-9.4e-4 -12.44683,-51.89759 h -11.41196 l -12.44684,51.89853 h -25.78369 l 43.93651,40.81398 z"
       id="path2106" /><text
       xml:space="preserve"
       transform="matrix(0.39401803,0,0,0.39401803,55.416153,4.0697925)"
       id="text355"
       style="font-size:66.6667px;white-space:pre;shape-inside:url(#rect357);fill:#000000;stroke:#000000;stroke-width:5;stroke-linecap:square;stroke-linejoin:round"><tspan
         x="-9.4785156"
         y="-127.39279"
         id="tspan520">Counter</tspan></text><text
       xml:space="preserve"
       transform="matrix(0.39401803,0,0,0.39401803,55.576874,290.73262)"
       id="text355-4"
       style="font-size:66.6667px;white-space:pre;shape-inside:url(#rect357-1);fill:#000000;stroke:#000000;stroke-width:5;stroke-linecap:square;stroke-linejoin:round"><tspan
         x="-9.4785156"
         y="-127.39279"
         id="tspan522">Counter</tspan></text></g></svg>
